<svg width="24" height="24" viewBox="0 0 24 24" fill="none" xmlns="http://www.w3.org/2000/svg">
<path d="M18.0797 12.4202L11.8997 18.6102C11.0895 19.3302 10.0348 19.7135 8.95139 19.6816C7.86797 19.6497 6.83767 19.2051 6.07124 18.4386C5.30482 17.6722 4.86018 16.6419 4.82829 15.5585C4.7964 14.4751 5.17966 13.4204 5.89967 12.6102L13.8997 4.61021C14.3773 4.15651 15.0109 3.90354 15.6697 3.90354C16.3284 3.90354 16.962 4.15651 17.4397 4.61021C17.905 5.0818 18.1659 5.71768 18.1659 6.38021C18.1659 7.04274 17.905 7.67862 17.4397 8.15021L10.5397 15.0402C10.4714 15.1138 10.3893 15.1731 10.298 15.2149C10.2068 15.2567 10.1082 15.2802 10.008 15.2839C9.90767 15.2876 9.80763 15.2715 9.71356 15.2366C9.61948 15.2016 9.53321 15.1485 9.45967 15.0802C9.38613 15.0119 9.32676 14.9298 9.28495 14.8386C9.24314 14.7474 9.21971 14.6488 9.216 14.5485C9.21228 14.4482 9.22836 14.3482 9.2633 14.2541C9.29825 14.16 9.35138 14.0738 9.41967 14.0002L14.5497 8.88021C14.738 8.69191 14.8438 8.43651 14.8438 8.17021C14.8438 7.90391 14.738 7.64852 14.5497 7.46021C14.3614 7.27191 14.106 7.16612 13.8397 7.16612C13.5734 7.16612 13.318 7.27191 13.1297 7.46021L7.99967 12.6002C7.74298 12.8549 7.53924 13.1579 7.4002 13.4917C7.26117 13.8256 7.18959 14.1836 7.18959 14.5452C7.18959 14.9068 7.26117 15.2649 7.4002 15.5987C7.53924 15.9325 7.74298 16.2355 7.99967 16.4902C8.52404 16.9897 9.22048 17.2683 9.94467 17.2683C10.6689 17.2683 11.3653 16.9897 11.8897 16.4902L18.7797 9.59021C19.5746 8.73716 20.0073 7.60888 19.9867 6.44308C19.9662 5.27727 19.4939 4.16496 18.6694 3.34048C17.8449 2.516 16.7326 2.04373 15.5668 2.02316C14.401 2.00259 13.2727 2.43533 12.4197 3.23021L4.41967 11.2302C3.34087 12.425 2.7647 13.9901 2.8112 15.5992C2.85771 17.2083 3.5233 18.7374 4.66931 19.868C5.81532 20.9985 7.35335 21.6433 8.96296 21.6679C10.5726 21.6925 12.1296 21.0951 13.3097 20.0002L19.4997 13.8202C19.5929 13.727 19.6669 13.6163 19.7173 13.4945C19.7678 13.3726 19.7938 13.2421 19.7938 13.1102C19.7938 12.9784 19.7678 12.8478 19.7173 12.726C19.6669 12.6041 19.5929 12.4935 19.4997 12.4002C19.4064 12.307 19.2957 12.233 19.1739 12.1826C19.0521 12.1321 18.9215 12.1061 18.7897 12.1061C18.6578 12.1061 18.5272 12.1321 18.4054 12.1826C18.2836 12.233 18.1729 12.307 18.0797 12.4002V12.4202Z" fill="black"/>
</svg>
