<svg width="36" height="32" viewBox="0 0 36 32" fill="none" xmlns="http://www.w3.org/2000/svg">
<path d="M1 21.5V28.5C1 29.6046 1.89543 30.5 3 30.5H33C34.1046 30.5 35 29.6046 35 28.5V21.5" stroke="#939393" stroke-width="2" stroke-linecap="round"/>
<path d="M19.05 1C19.05 0.447715 18.6023 0 18.05 0C17.4978 0 17.05 0.447715 17.05 1L19.05 1ZM17.05 21V22H19.05V21H17.05ZM17.05 1V21H19.05V1L17.05 1Z" fill="#939393"/>
<path d="M10 14.5L17.3161 21.3588C17.7007 21.7194 18.2993 21.7194 18.6839 21.3588L26 14.5" stroke="#939393" stroke-width="2" stroke-linecap="round"/>
</svg>
