<svg width="24" height="24" viewBox="0 0 24 24" fill="none" xmlns="http://www.w3.org/2000/svg">
<path fill-rule="evenodd" clip-rule="evenodd" d="M4.70696 4.70711C5.09748 4.31658 5.73065 4.31658 6.12117 4.70711L18.8491 17.435C19.2396 17.8256 19.2396 18.4587 18.8491 18.8492C18.4586 19.2398 17.8254 19.2398 17.4349 18.8492L4.70696 6.12132C4.31643 5.7308 4.31643 5.09763 4.70696 4.70711Z" fill="black"/>
<path fill-rule="evenodd" clip-rule="evenodd" d="M19.2637 4.70711C18.8732 4.31658 18.2401 4.31658 17.8495 4.70711L5.12161 17.435C4.73109 17.8256 4.73109 18.4587 5.12161 18.8492C5.51214 19.2398 6.1453 19.2398 6.53583 18.8492L19.2637 6.12132C19.6543 5.7308 19.6543 5.09763 19.2637 4.70711Z" fill="black"/>
</svg>
