<svg width="24" height="24" viewBox="0 0 24 24" fill="none" xmlns="http://www.w3.org/2000/svg">
<path d="M6.99987 4.51677C8.47991 3.52784 10.22 3 12 3C13.1819 3 14.3522 3.23279 15.4442 3.68508C16.5361 4.13738 17.5282 4.80031 18.364 5.63604C19.1997 6.47177 19.8626 7.46392 20.3149 8.55585C20.7672 9.64778 21 10.8181 21 12C21 13.78 20.4722 15.5201 19.4832 17.0001C18.4943 18.4802 17.0887 19.6337 15.4442 20.3149C13.7996 20.9961 11.99 21.1743 10.2442 20.8271C8.49836 20.4798 6.89472 19.6226 5.63604 18.364C4.37737 17.1053 3.5202 15.5016 3.17294 13.7558C2.82567 12.01 3.0039 10.2004 3.68509 8.55585C4.36628 6.91131 5.51983 5.50571 6.99987 4.51677Z" stroke="black" stroke-width="2"/>
<path d="M14.7201 8.78982L10.4301 13.0898L8.78005 11.4398C8.6904 11.3351 8.58009 11.2501 8.45602 11.1901C8.33196 11.1301 8.19682 11.0963 8.0591 11.091C7.92139 11.0857 7.78405 11.1089 7.65573 11.1592C7.5274 11.2095 7.41086 11.2857 7.3134 11.3832C7.21595 11.4806 7.13969 11.5972 7.08941 11.7255C7.03914 11.8538 7.01593 11.9911 7.02125 12.1289C7.02657 12.2666 7.0603 12.4017 7.12033 12.5258C7.18035 12.6499 7.26537 12.7602 7.37005 12.8498L9.72005 15.2098C9.81349 15.3025 9.92431 15.3758 10.0461 15.4256C10.168 15.4754 10.2984 15.5006 10.4301 15.4998C10.6924 15.4987 10.9438 15.3946 11.1301 15.2098L16.1301 10.2098C16.2238 10.1169 16.2982 10.0063 16.3489 9.88439C16.3997 9.76253 16.4258 9.63183 16.4258 9.49982C16.4258 9.3678 16.3997 9.2371 16.3489 9.11524C16.2982 8.99338 16.2238 8.88278 16.1301 8.78982C15.9427 8.60356 15.6892 8.49902 15.4251 8.49902C15.1609 8.49902 14.9074 8.60356 14.7201 8.78982Z" fill="black"/>
</svg>
