<svg width="24" height="24" viewBox="0 0 24 24" fill="none" xmlns="http://www.w3.org/2000/svg">
<path d="M18 7.00028H17.65C17.8782 6.53305 17.9979 6.02027 18 5.50028C18.003 4.80361 17.7975 4.12197 17.4098 3.54311C17.0221 2.96425 16.4701 2.51467 15.8247 2.25222C15.1794 1.98977 14.4703 1.92648 13.7886 2.07049C13.107 2.2145 12.4841 2.55922 12 3.06028C11.5159 2.55922 10.893 2.2145 10.2114 2.07049C9.52975 1.92648 8.82061 1.98977 8.17525 2.25222C7.5299 2.51467 6.97786 2.96425 6.59019 3.54311C6.20252 4.12197 5.99697 4.80361 6 5.50028C6.00213 6.02027 6.12178 6.53305 6.35 7.00028H6C5.20435 7.00028 4.44129 7.31635 3.87868 7.87896C3.31607 8.44157 3 9.20463 3 10.0003V12.0003C3 12.2655 3.10536 12.5199 3.29289 12.7074C3.48043 12.8949 3.73478 13.0003 4 13.0003H5V19.0003C5 19.7959 5.31607 20.559 5.87868 21.1216C6.44129 21.6842 7.20435 22.0003 8 22.0003H16C16.7956 22.0003 17.5587 21.6842 18.1213 21.1216C18.6839 20.559 19 19.7959 19 19.0003V13.0003H20C20.2652 13.0003 20.5196 12.8949 20.7071 12.7074C20.8946 12.5199 21 12.2655 21 12.0003V10.0003C21 9.20463 20.6839 8.44157 20.1213 7.87896C19.5587 7.31635 18.7956 7.00028 18 7.00028ZM11 20.0003H8C7.73478 20.0003 7.48043 19.8949 7.29289 19.7074C7.10536 19.5199 7 19.2655 7 19.0003V13.0003H11V20.0003ZM11 11.0003H5V10.0003C5 9.73506 5.10536 9.48071 5.29289 9.29318C5.48043 9.10564 5.73478 9.00028 6 9.00028H11V11.0003ZM11 7.00028H9.5C9.20333 7.00028 8.91332 6.91231 8.66665 6.74749C8.41997 6.58266 8.22771 6.3484 8.11418 6.07431C8.00065 5.80022 7.97094 5.49862 8.02882 5.20765C8.0867 4.91667 8.22956 4.6494 8.43934 4.43962C8.64912 4.22984 8.91639 4.08698 9.20736 4.0291C9.49834 3.97123 9.79994 4.00093 10.074 4.11446C10.3481 4.22799 10.5824 4.42025 10.7472 4.66693C10.912 4.9136 11 5.20361 11 5.50028V7.00028ZM13 5.50028C13 5.20361 13.088 4.9136 13.2528 4.66693C13.4176 4.42025 13.6519 4.22799 13.926 4.11446C14.2001 4.00093 14.5017 3.97123 14.7926 4.0291C15.0836 4.08698 15.3509 4.22984 15.5607 4.43962C15.7704 4.6494 15.9133 4.91667 15.9712 5.20765C16.0291 5.49862 15.9994 5.80022 15.8858 6.07431C15.7723 6.3484 15.58 6.58266 15.3334 6.74749C15.0867 6.91231 14.7967 7.00028 14.5 7.00028H13V5.50028ZM17 19.0003C17 19.2655 16.8946 19.5199 16.7071 19.7074C16.5196 19.8949 16.2652 20.0003 16 20.0003H13V13.0003H17V19.0003ZM19 11.0003H13V9.00028H18C18.2652 9.00028 18.5196 9.10564 18.7071 9.29318C18.8946 9.48071 19 9.73506 19 10.0003V11.0003Z" fill="black"/>
</svg>
