<svg width="24" height="24" viewBox="0 0 24 24" fill="none" xmlns="http://www.w3.org/2000/svg">
<path fill-rule="evenodd" clip-rule="evenodd" d="M12 7.46926C11.4689 7.46926 10.9596 7.25801 10.5844 6.88207C10.0638 6.36046 9.57057 5.87054 9.01677 5.49788C8.47782 5.13521 8.03082 4.98901 7.63159 5.00066C6.59131 5.03102 5.8294 5.49222 5.01744 6.41471C4.3202 7.20686 3.96205 8.21951 4.00319 9.24804C4.04434 10.2767 4.48256 11.2609 5.24312 11.9995L5.24814 12.0044L12 18.6072L18.7569 11.9995C19.5174 11.2609 19.9557 10.2767 19.9968 9.24804C20.0379 8.21951 19.6798 7.20686 18.9826 6.41471C18.1706 5.49222 17.4087 5.03102 16.3684 5.00066C15.9692 4.98901 15.5222 5.13521 14.9832 5.49788C14.4294 5.87054 13.9362 6.36046 13.4156 6.88207C13.0404 7.25801 12.5311 7.46926 12 7.46926ZM12 21.0001C11.8682 21.0001 11.7376 20.9745 11.6159 20.925C11.4942 20.8754 11.3837 20.8027 11.2909 20.7111L3.84978 13.4343C2.72594 12.3429 2.06669 10.8757 2.00479 9.32798C1.94288 7.7803 2.48292 6.26717 3.51615 5.09329C4.54938 3.91941 5.79216 3.05349 7.57325 3.00151C9.32073 2.95052 10.7199 4.20052 11.7112 5.18106C11.8027 5.2715 11.8906 5.35964 11.975 5.44426L12 5.46925L12.025 5.44426C12.1094 5.35964 12.1973 5.2715 12.2888 5.18106C13.2801 4.20052 14.6793 2.95052 16.4268 3.00151C18.2078 3.05349 19.4506 3.91941 20.4838 5.09329C21.5171 6.26717 22.0571 7.7803 21.9952 9.32798C21.9333 10.8757 21.2741 12.3429 20.1502 13.4343L12.7091 20.7111C12.6163 20.8027 12.5058 20.8754 12.3841 20.925C12.2624 20.9745 12.1318 21.0001 12 21.0001ZM12.6951 19.287L12.6892 19.2812C12.6912 19.2831 12.6931 19.2851 12.6951 19.287Z" fill="black"/>
</svg>
