<svg width="208" height="46" viewBox="0 0 208 46" fill="none" xmlns="http://www.w3.org/2000/svg">
<path d="M2.875 16.2917C2.875 11.5954 2.875 9.24726 3.78896 7.45352C4.59289 5.8757 5.8757 4.59289 7.45352 3.78896C9.24726 2.875 11.5954 2.875 16.2917 2.875H29.7083C34.4046 2.875 36.7527 2.875 38.5465 3.78896C40.1243 4.59289 41.4071 5.8757 42.211 7.45352C43.125 9.24726 43.125 11.5954 43.125 16.2917V29.7083C43.125 34.4046 43.125 36.7527 42.211 38.5465C41.4071 40.1243 40.1243 41.4071 38.5465 42.211C36.7527 43.125 34.4046 43.125 29.7083 43.125H16.2917C11.5954 43.125 9.24726 43.125 7.45352 42.211C5.8757 41.4071 4.59289 40.1243 3.78896 38.5465C2.875 36.7527 2.875 34.4046 2.875 29.7083V16.2917Z" fill="#7B61FF"/>
<circle cx="23" cy="23" r="12.9375" fill="white"/>
<path fill-rule="evenodd" clip-rule="evenodd" d="M17.4712 23C17.4712 26.0535 19.9465 28.5288 23 28.5288C26.0535 28.5288 28.5288 26.0535 28.5288 23H31.625C31.625 27.7635 27.7635 31.625 23 31.625C18.2365 31.625 14.375 27.7635 14.375 23H17.4712Z" fill="#7B61FF"/>
<path d="M61.7403 33.9997H66.9303L63.7203 21.6097L66.7503 11.6797H61.8303L59.5203 19.5997V11.6797H54.5703V33.9997H59.5203V25.0897L61.7403 33.9997Z" fill="#7B61FF"/>
<path d="M68.5726 33.3397C68.6926 33.9397 68.7226 34.1797 68.6926 34.5097L68.6626 34.8997C68.6326 35.3797 68.5426 35.5597 68.0926 35.5597H66.3826V39.6397H70.6126C71.6626 39.6397 72.6826 39.0697 73.0426 37.1797L76.7326 17.8597H72.0826L71.2426 26.4397L70.2526 17.8597H65.5126L68.5726 33.3397Z" fill="#7B61FF"/>
<path d="M81.7496 33.9997V21.9097H83.0096V33.9997H87.8396V17.8597H76.9496V33.9997H81.7496Z" fill="#7B61FF"/>
<path d="M99.8291 33.9997V17.8597H95.1491L93.3191 25.4797V17.8597H88.6391V33.9997H93.3191L95.1491 26.4097V33.9997H99.8291Z" fill="#7B61FF"/>
<path d="M105.451 33.9997V21.9097H106.711V33.9997H111.541V17.8597H100.651V33.9997H105.451Z" fill="#7B61FF"/>
<path d="M112.31 28.9897C112.31 32.3797 113.87 34.3297 117.35 34.3297H118.31C121.46 34.3297 123.41 32.3497 123.41 28.9597V22.8097C123.41 19.3297 121.64 17.5297 118.31 17.5297H117.38C114.14 17.5297 112.31 19.3297 112.31 22.8397V28.9897ZM117.14 22.2997C117.14 21.6997 117.26 21.2797 117.83 21.2797C118.4 21.2797 118.55 21.6997 118.55 22.2997V29.4397C118.55 30.0397 118.4 30.4597 117.83 30.4597C117.26 30.4597 117.14 30.0397 117.14 29.4397V22.2997Z" fill="#7B61FF"/>
<path d="M127.868 36.9997V33.9997H132.008V36.9997H136.178V29.9497H135.128V17.8597H124.808C124.808 24.9397 124.838 27.1897 124.688 28.4797C124.598 29.4097 124.418 29.8597 124.268 29.9497H123.668V36.9997H127.868ZM128.738 28.6597C128.948 27.0697 129.008 24.7297 129.008 21.8497H130.388V29.9497H128.468C128.588 29.5897 128.678 29.1697 128.738 28.6597Z" fill="#7B61FF"/>
<path d="M142.385 29.9197C142.385 30.3697 142.235 30.6997 141.785 30.6997C141.335 30.6997 141.215 30.3997 141.215 29.9197V28.0297C141.215 27.4297 141.305 27.1897 141.545 26.8597C141.785 26.5897 142.175 26.3497 142.385 26.2297V29.9197ZM136.655 31.1197C136.655 32.7097 137.525 34.1797 139.205 34.1797H139.325C140.855 34.1797 141.905 33.0097 142.415 32.1697C142.415 33.3997 142.835 33.9997 143.645 33.9997H147.875V30.0697H147.455C147.095 30.0697 147.005 29.9797 147.005 29.7097V21.3997C147.005 18.8797 145.535 17.5897 142.085 17.5897H141.425C138.215 17.5897 136.865 19.0897 136.865 21.2197V23.0497H141.125V21.5497C141.125 21.0997 141.245 20.8297 141.725 20.8297H141.815C142.205 20.8297 142.385 21.0697 142.385 21.5497V22.3897C142.385 22.8397 142.295 22.8697 142.055 22.9897C141.575 23.2297 139.505 24.0997 138.695 24.4897C137.345 25.2097 136.655 26.2297 136.655 27.9397V31.1197Z" fill="#7B61FF"/>
<path d="M148.289 17.8597V39.6397H153.089V32.4697C153.899 33.6397 154.829 34.3297 156.119 34.3297H156.209C157.889 34.3297 159.269 32.7697 159.269 30.4897V21.5497C159.269 19.2697 158.429 17.6497 156.419 17.6497H156.329C154.919 17.6497 154.019 18.4297 153.059 19.8397V17.8597H148.289ZM153.089 22.1497C153.089 21.6397 153.209 21.2497 153.719 21.2497C154.229 21.2497 154.379 21.5797 154.379 22.1497V29.9197C154.379 30.4297 154.289 30.8497 153.719 30.8497C153.269 30.8497 153.089 30.4597 153.089 29.8897V22.1497Z" fill="#7B61FF"/>
<path d="M171.196 33.9997V17.8597H166.516L164.686 25.4797V17.8597H160.006V33.9997H164.686L166.516 26.4097V33.9997H171.196Z" fill="#7B61FF"/>
<path d="M175.798 36.9997V33.9997H179.938V36.9997H184.108V29.9497H183.058V17.8597H172.738C172.738 24.9397 172.768 27.1897 172.618 28.4797C172.528 29.4097 172.348 29.8597 172.198 29.9497H171.598V36.9997H175.798ZM176.668 28.6597C176.878 27.0697 176.938 24.7297 176.938 21.8497H178.318V29.9497H176.398C176.518 29.5897 176.608 29.1697 176.668 28.6597Z" fill="#7B61FF"/>
<path d="M190.314 29.9197C190.314 30.3697 190.164 30.6997 189.714 30.6997C189.264 30.6997 189.144 30.3997 189.144 29.9197V28.0297C189.144 27.4297 189.234 27.1897 189.474 26.8597C189.714 26.5897 190.104 26.3497 190.314 26.2297V29.9197ZM184.584 31.1197C184.584 32.7097 185.454 34.1797 187.134 34.1797H187.254C188.784 34.1797 189.834 33.0097 190.344 32.1697C190.344 33.3997 190.764 33.9997 191.574 33.9997H195.804V30.0697H195.384C195.024 30.0697 194.934 29.9797 194.934 29.7097V21.3997C194.934 18.8797 193.464 17.5897 190.014 17.5897H189.354C186.144 17.5897 184.794 19.0897 184.794 21.2197V23.0497H189.054V21.5497C189.054 21.0997 189.174 20.8297 189.654 20.8297H189.744C190.134 20.8297 190.314 21.0697 190.314 21.5497V22.3897C190.314 22.8397 190.224 22.8697 189.984 22.9897C189.504 23.2297 187.434 24.0997 186.624 24.4897C185.274 25.2097 184.584 26.2297 184.584 27.9397V31.1197Z" fill="#7B61FF"/>
<path d="M207.349 33.9997V17.8597H202.669L200.839 25.4797V17.8597H196.159V33.9997H200.839L202.669 26.4097V33.9997H207.349ZM201.859 17.2297C203.989 17.2297 205.459 15.9397 205.459 13.6597V13.2997H202.549V13.5097C202.549 14.1997 202.309 14.5597 201.799 14.5597H201.769C201.289 14.5597 201.049 14.1997 201.049 13.5097V13.2997H198.079V13.6597C198.079 15.9397 199.459 17.2297 201.739 17.2297H201.859Z" fill="#7B61FF"/>
</svg>
