<svg width="46" height="46" viewBox="0 0 46 46" fill="none" xmlns="http://www.w3.org/2000/svg">
<path d="M2.875 16.2917C2.875 11.5954 2.875 9.24726 3.78896 7.45352C4.59289 5.8757 5.8757 4.59289 7.45352 3.78896C9.24726 2.875 11.5954 2.875 16.2917 2.875H29.7083C34.4046 2.875 36.7527 2.875 38.5465 3.78896C40.1243 4.59289 41.4071 5.8757 42.211 7.45352C43.125 9.24726 43.125 11.5954 43.125 16.2917V29.7083C43.125 34.4046 43.125 36.7527 42.211 38.5465C41.4071 40.1243 40.1243 41.4071 38.5465 42.211C36.7527 43.125 34.4046 43.125 29.7083 43.125H16.2917C11.5954 43.125 9.24726 43.125 7.45352 42.211C5.8757 41.4071 4.59289 40.1243 3.78896 38.5465C2.875 36.7527 2.875 34.4046 2.875 29.7083V16.2917Z" fill="#7B61FF"/>
<circle cx="23" cy="23" r="12.9375" fill="white"/>
<path fill-rule="evenodd" clip-rule="evenodd" d="M17.4712 23C17.4712 26.0535 19.9465 28.5288 23 28.5288C26.0535 28.5288 28.5288 26.0535 28.5288 23H31.625C31.625 27.7635 27.7635 31.625 23 31.625C18.2365 31.625 14.375 27.7635 14.375 23H17.4712Z" fill="#7B61FF"/>
</svg>
