<svg width="24" height="24" viewBox="0 0 24 24" fill="none" xmlns="http://www.w3.org/2000/svg">
<path d="M10.9402 6.08019C11.2909 6.02642 11.6453 5.99967 12.0002 6.00019C15.1802 6.00019 18.1702 8.29018 19.9102 12.0002C19.6441 12.5648 19.3435 13.1125 19.0102 13.6402C18.9044 13.804 18.8487 13.9952 18.8502 14.1902C18.8524 14.4084 18.926 14.6199 19.0596 14.7925C19.1933 14.965 19.3798 15.089 19.5905 15.1457C19.8013 15.2024 20.0248 15.1885 20.227 15.1063C20.4291 15.024 20.5988 14.8779 20.7102 14.6902C21.1761 13.9581 21.5808 13.1888 21.9202 12.3902C21.9738 12.2654 22.0015 12.131 22.0015 11.9952C22.0015 11.8594 21.9738 11.725 21.9202 11.6002C19.9002 6.91019 16.1002 4.00019 12.0002 4.00019C11.5309 3.99782 11.0623 4.03798 10.6002 4.12019C10.4689 4.14251 10.3432 4.19048 10.2304 4.26136C10.1177 4.33224 10.0199 4.42464 9.94287 4.53329C9.8658 4.64193 9.81088 4.76469 9.78125 4.89456C9.75162 5.02443 9.74786 5.15886 9.77018 5.29019C9.79251 5.42151 9.84048 5.54715 9.91136 5.65993C9.98224 5.77271 10.0746 5.87043 10.1833 5.9475C10.2919 6.02457 10.4147 6.07949 10.5446 6.10912C10.6744 6.13875 10.8089 6.14251 10.9402 6.12019V6.08019ZM3.71019 2.29019C3.61695 2.19695 3.50626 2.12299 3.38443 2.07253C3.26261 2.02207 3.13204 1.99609 3.00019 1.99609C2.86833 1.99609 2.73776 2.02207 2.61594 2.07253C2.49411 2.12299 2.38342 2.19695 2.29019 2.29019C2.10188 2.47849 1.99609 2.73388 1.99609 3.00019C1.99609 3.26649 2.10188 3.52188 2.29019 3.71019L5.39019 6.80019C3.97576 8.16171 2.85004 9.79417 2.08019 11.6002C2.02512 11.7264 1.9967 11.8625 1.9967 12.0002C1.9967 12.1378 2.02512 12.274 2.08019 12.4002C4.10019 17.0902 7.90019 20.0002 12.0002 20.0002C13.7973 19.9878 15.552 19.4527 17.0502 18.4602L20.2902 21.7102C20.3831 21.8039 20.4937 21.8783 20.6156 21.9291C20.7375 21.9798 20.8682 22.006 21.0002 22.006C21.1322 22.006 21.2629 21.9798 21.3848 21.9291C21.5066 21.8783 21.6172 21.8039 21.7102 21.7102C21.8039 21.6172 21.8783 21.5066 21.9291 21.3848C21.9798 21.2629 22.006 21.1322 22.006 21.0002C22.006 20.8682 21.9798 20.7375 21.9291 20.6156C21.8783 20.4937 21.8039 20.3831 21.7102 20.2902L3.71019 2.29019ZM10.0702 11.4802L12.5202 13.9302C12.3512 13.9787 12.176 14.0022 12.0002 14.0002C11.4698 14.0002 10.961 13.7895 10.586 13.4144C10.2109 13.0393 10.0002 12.5306 10.0002 12.0002C9.99814 11.8244 10.0217 11.6492 10.0702 11.4802ZM12.0002 18.0002C8.82018 18.0002 5.83019 15.7102 4.10019 12.0002C4.74627 10.5739 5.66326 9.28676 6.80019 8.21019L8.57019 10.0002C8.15443 10.759 7.99592 11.6321 8.11844 12.4886C8.24096 13.3452 8.6379 14.1388 9.24971 14.7507C9.86152 15.3625 10.6552 15.7594 11.5117 15.8819C12.3682 16.0044 13.2414 15.8459 14.0002 15.4302L15.5902 17.0002C14.5013 17.6411 13.2636 17.9858 12.0002 18.0002Z" fill="black"/>
</svg>
